<?xml version="1.0" encoding="utf-8"?>
<!-- Generator: Adobe Illustrator 24.3.0, SVG Export Plug-In . SVG Version: 6.00 Build 0)  -->
<svg version="1.1" id="Layer_1" xmlns="http://www.w3.org/2000/svg" xmlns:xlink="http://www.w3.org/1999/xlink" x="0px" y="0px"
	 viewBox="0 0 1598.6 2548.7" style="enable-background:new 0 0 1598.6 2548.7;" xml:space="preserve">
<style type="text/css">
	.st0{fill:#F4F4F4;}
	.st1{opacity:3.000000e-02;}
	.st2{fill:#2257BE;}
	.st3{fill:#FDFDFE;}
	.st4{fill:#FEFEFE;}
	.st5{fill:#E8EDF8;}
	.st6{fill:#E5EAF7;}
	.st7{fill:#E3E9F6;}
	.st8{fill:#D6E0F2;}
	.st9{fill:#E2E9F6;}
	.st10{fill:#E1E8F6;}
	.st11{fill:#E1E8F5;}
	.st12{fill:#DFE7F5;}
	.st13{fill:#E4EAF6;}
	.st14{fill:#DDE4F4;}
	.st15{fill:#E5EBF7;}
	.st16{fill:#D4DEF2;}
	.st17{fill:#DEE6F5;}
	.st18{fill:#E7ECF7;}
	.st19{fill:#D5DFF2;}
	.st20{fill:#E3EAF6;}
	.st21{fill:#DAE3F4;}
	.st22{fill:#285BC0;}
	.st23{fill:#3A69C5;}
	.st24{fill:#3B6AC5;}
	.st25{fill:#2D5FC1;}
	.st26{fill:#2458BF;}
	.st27{fill:#2659BF;}
	.st28{fill:#3364C3;}
	.st29{fill:#2E60C2;}
	.st30{fill:#3867C5;}
</style>
<rect x="-1849.8" y="-3003" class="st0" width="5327.5" height="8494"/>
<g class="st1">
	<path class="st2" d="M1389.7,616.4c3.3,310.9-251.6,576.3-575.7,576.1c-324.1-0.2-575.9-265.8-575.8-576.8
		c0-311.9,259.6-586,597-574.6C1142.4,51.4,1392.5,306.6,1389.7,616.4z"/>
	<path class="st3" d="M814.3,57.6c308.8-0.3,559.6,250.4,559.5,559c-0.1,308.9-250.2,559-559.3,559.2
		c-308.9,0.2-559.3-250-559.6-558.9C254.7,308.1,505.1,57.7,814.3,57.6z"/>
	<path class="st2" d="M814.6,63.4c305.1,0.3,553.2,248.4,553,553.4c-0.2,305.8-248.5,553-554.7,552.4
		c-305.5-0.6-552.5-248.7-551.9-554.1C261.6,310.9,510.1,63.2,814.6,63.4z"/>
	<path class="st4" d="M899.7,458.6c-7.2-30.6-13.9-59.3-20.6-87.9c-1.2-4.9-1.6-11-8.2-11.1c-7.5,0-7.4,6.8-8.1,12
		c-4.9,41.8-9.5,83.5-14.2,125.5c-0.8-0.2-1.9-0.2-2-0.5c-7.2-15.9-19.3-22.1-36.4-18.7c-6.1,1.2-8.9-1.7-10.9-7.3
		c-4-12-8.6-23.7-12.9-35.4c-1.4-3.9-3.2-7.4-8.1-7.4c-4.9,0-6.6,3.5-7.9,7.4c-2.1,6.5-4.5,12.8-6.7,19.3c-3.9-0.5-3.1-3.5-3.6-5.8
		c-6.4-26.1-12.8-52.3-19.1-78.5c-1.2-5-1.9-10.9-8.5-10.5c-6.7,0.4-6.7,6.4-7.3,11.4c-4.3,37.5-8.4,75-12.7,112.5
		c-0.5,4.3-1.4,8.4-2.1,12.8c-1.1-0.4-2.1-0.4-2.2-0.8c-6.6-17.8-20.8-19.8-36.7-17.6c-8.4,1.2-12.5-1.9-15.5-10.3
		c-9.5-26.8-17.9-53.9-20.5-82.4c-4.2-46.3,26.4-91.6,68.8-97.2c52.8-6.9,94.6,15.2,108.9,74.4c2.5-10.6,5.3-19.8,10.1-28.3
		c4.8-8.5,10.4-16.3,17.3-23.4c26.8-27.6,77.2-29.9,105.8-15.2c31.5,16.2,51.3,55.6,46.7,93.7c-3.2,26.1-8.3,51.7-18.3,76.4
		c-3.4,8.4-7.5,13.2-18.2,12.4c-16.9-1.2-17.1-0.3-22.9-16.5c-3.3-9.1-6.4-18.3-9.7-27.5c-1.2-3.5-3.2-6.5-7.6-6.6
		c-4.4-0.1-6.4,2.9-7.7,6.4C905.9,441.5,903.2,448.9,899.7,458.6z"/>
	<path class="st4" d="M669.6,493.5c13.9-4.5,22.2,0.6,27.9,12.1c2.7,5.4,6.6,10.3,10,15.3c2.2,3.4,4.5,6.8,9.4,5.4
		c5.1-1.5,5.8-5.9,6.2-10.3c3-26.4,6-52.9,9-79.3c1-8.5,1.9-17.1,3.2-28.3c5.8,24.3,11.1,46.2,16.3,68c0.6,2.5,1.2,4.9,1.9,7.4
		c1,3.6,2.7,6.9,7,7.1c4.8,0.3,7-3,8.3-7c3.2-9,6.3-18.1,9.7-28.3c3.5,9.7,7,18,9.7,26.5c2.3,7.3,6.6,11.7,14.1,10.1
		c19-4.1,30.4,4.7,37.7,21.1c0.2,0.4,0.4,0.6,0.6,0.9c4.3,4.4,5.4,13.9,13.4,12.1c9.3-1.9,6.8-11.6,7.5-18.3
		c3.5-29,6.4-57.9,9.5-86.9c0.3-2.4,1-4.8,3-7.3c5.3,21.7,10.5,43.3,15.9,65c1.2,4.6,1,11.1,7.5,11.7c7.1,0.6,8.2-5.8,9.9-10.8
		c2.7-7.4,5.5-14.7,8.9-24.1c3.5,9.5,6.8,16.7,8.9,24.4c2.6,9,7.5,13.3,17.2,12.2c5.2-0.6,10.6-0.1,17.3-0.1
		c-9,18.9-21.1,34.1-33.2,49c-30.9,37.7-66.7,70.5-107,98.1c-3.3,2.2-5.8,5.5-11,1.7c-54.2-39.6-102.3-85.1-136.9-143.4
		C671.1,496.5,670.6,495.2,669.6,493.5z"/>
	<path class="st4" d="M945.1,739.8c-27.1,21.2-41.3,48-50.6,77.3c-2.6,8.1,2.3,18.3,2.7,27.6c0.6,19.9-11.3,29.6-30.2,25.2
		c-10.7-2.5-16-8.9-15.6-20c0.2-5,0.4-10.5,2.7-14.7c6.6-12.1,3.5-23.1-1.3-34.6c-6.6-15.5-12.8-31.1-22.9-46.8
		c-6.2,26.4-14.3,50.9-15.5,76.8c-0.3,5.4-0.2,10.6,5.3,14.3c5.1,3.4,1.5,8,0,11.4c-4.5,10.7-18.8,17.8-30.6,15.7
		c-11.9-2-21.1-12.1-22.4-24.5c-1.7-15.5,2.1-30,8.1-44c9.1-21.4,19-42.6,28.1-64.1c1.9-4.4,6.8-10.7,1.1-14.4
		c-6.2-3.9-13.7-2.8-20,2.5c-2.7,2.3-3.6,6.3-7.4,7.4c-1.1-26.2,17.8-47.5,41-46c12.8,0.8,22,8.4,29.5,18
		c17.5,22.1,24.5,48.4,30,75.3c0.8,3.8,1.6,7.7,2.9,13.6c7.4-22,14.6-41.8,25.6-60c12.1-20,26.4-37.9,50-45.3
		c24-7.4,48.8,5.1,56.6,28.3c2.1,6.4,3.2,10.7-6.9,9c-26.5-4.5-26.5-4.2-31.1,22.3c-3.5,19.8-7.1,39.7-6.6,60
		c0.1,2.1-0.1,4.3,0.3,6.5c1.2,7.3,0.1,16.5,8.9,19c8.5,2.5,12-5.8,16.2-11.7c2.9,19-6.3,37.1-22.4,44.8c-19.6,9.3-39.2-1.7-44-25
		c-4.5-21.4,0.2-42.3,5.7-62.8C935.7,768.1,940.3,755.3,945.1,739.8z"/>
	<path class="st4" d="M520.3,873c-12.4,0.7-24.2-1.1-34.8-8.5c-13.8-9.7-17.9-23.5-14.6-38.9c3.1-14.4,12.8-23.7,27.6-27.2
		c6.5-1.5,9.2-0.7,8.8,6.7c-0.6,10.1,0.5,20.1,5.1,29.4c5.9,12.2,16.4,16.3,26.2,10.3c11-6.7,14.3-20.8,6.9-30.8
		c-4.5-6.1-10.9-10.5-16.9-14.9c-9.7-7.4-19.7-14.7-28.2-23.5c-16.7-17.2-18.3-41.8-3.9-61c16.7-22.3,58.3-33,83.4-21.5
		c13.4,6.1,21.7,19.3,19.8,31.5c-2,13.7-12.9,23.9-27.7,26.4c-5.6,0.9-9,0.6-7.7-6.7c0.7-4.2,0.3-8.7-0.4-12.8
		c-1.6-9.6-8.9-15.4-18.1-14.9c-8.9,0.5-15.7,7.4-16.4,17c-0.9,12.1,5.3,20.7,14.7,27.1c8,5.5,16.7,9.9,25,15
		c36.4,22.2,36.9,57.9,1.2,82C554.9,868.2,538.7,874,520.3,873z"/>
	<path class="st4" d="M745.5,802.9c2.1,6.8-1,12.7-2.7,18.4c-10.9,34.6-41.6,55.4-77.6,51.5c-20.6-2.2-33.8-15.5-41.7-33.5
		c-18.8-42.8-8.2-116.3,52.4-143.2c16.1-7.1,33.1-9.4,50.6-5c17.3,4.3,26.9,15.1,27.9,31.2c1,15.5-8.2,28.2-24.5,33.9
		c-1.7,0.6-3.4,1.2-5.1,1.7c-16.7,4.2-16.9,3.9-13.6-12.4c0.6-3.2,1.3-6.4,1.3-9.6c-0.2-12.8-9.1-19-21.2-14.3
		c-7.6,3-13,8.9-17.1,15.8c-13.9,23.5-17,48.7-10.4,74.9c6.4,25.1,25.3,32.7,48,20.5c10.4-5.7,18.3-13.8,25.9-22.5
		C739.8,807.7,740.9,803.8,745.5,802.9z"/>
	<path class="st4" d="M1019.6,796.8c1.8-43.9,17.6-79.7,59.3-99.9c16.6-8.1,34.4-10.2,52.5-5.8c16.7,4.2,26.3,15,27,30.5
		c0.8,16.8-7.1,28.4-23.7,34.4c-1.7,0.6-3.4,1.2-5.1,1.6c-17.2,4.5-17.6,4.1-14.1-12.7c1.9-8.6,3.8-17.9-5.8-23.1
		c-9.4-5.1-17.3-0.1-24.1,6.5c-20.8,20.1-27.6,70.6-12.8,95.2c8.9,14.8,23.2,19,38.9,11.6c13.5-6.3,23.5-16.3,32.6-27.6
		c1.4-1.8,2.3-5.4,5.5-3.7c3.1,1.6,0.6,4.4,0.3,6.7c-4.3,30.2-34,66.1-74.4,63c-22-1.7-40.8-14.9-49.2-37.5
		C1021.7,823.2,1019.2,810.3,1019.6,796.8z"/>
	<path class="st5" d="M494.3,945.8c0-8,0-15.9,0-23.8c0-1.9,0.3-3.6,2.7-3.6c1.9,0,3.2,0.9,4.1,2.7c1.8,4.1,3.8,8.2,6.5,13.7
		c2.7-5.8,4.5-9.9,6.4-14.1c0.8-1.9,2.3-2.7,4.3-2.4c2.4,0.4,2.3,2.4,2.3,4.1c0.1,7.7,0,15.4,0,25.7c-6.6-7.1-2.6-13.6-4.9-19.2
		c-4.5,2.5-3,10.7-8.2,10.6c-5.4,0-4.1-7.5-8.5-11.3c-0.4,6.3-0.8,12-1.2,17.5C496.7,945.9,495.6,945.8,494.3,945.8z"/>
	<path class="st6" d="M685.4,937.3c0-6.2,0-12.4,0-18.6c5.1,8,2.8,16.4,3.4,24.5c0.1,1.6-0.7,2.7-2.4,2.9c-1.9,0.3-3.3-0.6-4.3-2.4
		c-2.9-5.2-5.8-10.4-9.3-16.3c-2.7,6.7,0.4,13-3.6,20.6c-3-10.3-1.2-18.7-1.7-26.8c-0.1-1.6,0.6-2.8,2.3-3c1.9-0.2,3.4,0.7,4.3,2.6
		c2.9,5.7,5.9,11.3,8.9,16.9C683.7,937.6,684.6,937.5,685.4,937.3z"/>
	<path class="st7" d="M765.8,945.9c-2.5-5.4-0.2-11.3-1.6-17.3c-4.7,2.5-3.2,10.7-8.2,11c-6.1,0.4-4.1-8.3-9-10.9
		c-2.6,5.5,1.2,12-3.1,18c-2.5-8.6-0.8-16.5-1.2-24.2c-0.1-1.8,0-3.7,2.3-4.1c2-0.4,3.4,0.9,4.3,2.6c1.9,4.1,3.8,8.2,5.8,12.6
		c4.2-3.5,4.5-8.1,6.6-11.8c1.1-1.9,1.9-3.8,4.6-3.5c3.2,0.4,2.7,2.8,2.7,4.8c0.1,7.6,0,15.2,0,22.8
		C767.9,946,766.9,945.9,765.8,945.9z"/>
	<path class="st8" d="M1093.5,918c8.9,0.1,14.9,6.3,14.2,14.9c-0.6,8-4.3,13.7-13.5,13.6c-8.3-0.1-14.1-6-13.5-14.7
		C1081.5,923.9,1085.3,918.3,1093.5,918z"/>
	<path class="st9" d="M804.9,918.1c9.7,0.2,15.6,5.9,15.1,14.8c-0.5,8.7-4.8,13.6-14.2,13.7c-5.8,0.1-8.7-1.3-8.1-7.7
		c0.4-4.6,0.3-9.3,0.1-13.9C797.4,919.4,800.2,917.3,804.9,918.1z"/>
	<path class="st10" d="M994.6,931.2c2.2-3.9-4.9-13.3,7.1-13.2c9.2,0,15.1,5.4,15.2,14.2c0.1,9-5.4,14.4-14.8,14.3
		C994.6,946.5,994.6,946.5,994.6,931.2z"/>
	<path class="st11" d="M983,931.1c2.2,4.6,5.9,8.7,6.5,15.3c-7-2.2-6-12.8-14.3-11.3c-2.2,3.3,1,7.9-5,13c0-10.4-0.7-19,0.3-27.3
		c0.6-4.6,5.9-2.5,9.2-2.6c4.3-0.1,8,1.9,8.8,6.3c0.7,3.9-0.7,7.1-5.7,6.7c-0.9-1.4-1.2-3.2-2.9-4.3
		C979.6,929.6,982.3,929.6,983,931.1z"/>
	<path class="st9" d="M574,947.6c-6.6-4.3-6.2-12.8-12.5-12.3c-5.8,0.4-0.2,7.9-6.6,12c0-9.7-0.9-18.2,0.4-26.3
		c0.8-5.1,6.6-2.7,10.1-2.4c4.2,0.3,9.5,4,7,7.2C566.5,933.3,573.4,939.1,574,947.6z"/>
	<path class="st12" d="M1045.2,946.7c-8.8-0.3-13.1-4.9-13.4-13.5c-0.4-9.2,4.7-15.1,12.8-15.1c8.2,0,14.1,6.1,13.6,14.6
		C1057.8,940.8,1054,946.3,1045.2,946.7z"/>
	<path class="st13" d="M793.1,919.1c-3.7,6.4-12.2-0.7-12.9,6.7c-0.6,7,7.4,1.7,10.1,6.1c-1.9,4.1-12.1-1.9-10.4,7.1
		c1.4,7.5,9.3,0.7,12.8,6.8c-5.8,0.7-11.1,1.6-16.1-0.7c-1.4-0.6-1.7-24.5-0.3-25.3C781.5,916.8,786.9,917.9,793.1,919.1z"/>
	<path class="st14" d="M1125.6,932.2c8-2.6,8.2,1.4,8.9,6.8c0.9,7.4-3.8,6.3-8,7.1c-5.8,1-11,0.3-13.5-5.8c-2.7-6.7-2.6-13.7,2.7-19
		c4.7-4.6,10.5-4.4,18.9,0.4c-9.7,0.8-18.7-1.1-19,9.8c-0.2,4.4,0.6,8.6,5,11.1c3,1.7,6.3,0.4,8-1.2
		C1132.2,938.1,1128.4,935.4,1125.6,932.2z"/>
	<path class="st10" d="M550.4,945.2c-9.3-8-14.3-9.7-26.6,2.9c4.3-11,7.3-19.1,10.8-27.1c2.2-4.9,5.1-3.1,6.7,0.6
		C544.6,929.4,547.4,937.3,550.4,945.2z"/>
	<path class="st13" d="M965.5,947.7c-9.3-11.3-15.2-11.6-25.3-2.5c3.2-8.1,6.5-16.1,9.7-24.1c1.6-3.9,4.8-4,6.1-0.6
		C959.5,928.8,964.1,936.7,965.5,947.7z"/>
	<path class="st15" d="M857.4,945.1c3-7.8,5.8-15.7,9.2-23.3c2-4.7,5.1-5.1,7.1,0.1c3.2,7.7,6,15.6,9.9,25.7
		c-6.4-3.3-7.4-9.3-13.6-8.6c-5.4,0.5-8.3,2.7-9.7,8.3C859.4,946.5,858.4,945.8,857.4,945.1z"/>
	<path class="st9" d="M468.9,945.3c3.8-4.3,5.3-2.4,6.8-2.1c3.4,0.6,6.8,0.7,8.1-3.2c1.1-3.6-2.1-5-4.7-6.2
		c-5-2.4-11.3-4.8-7.4-11.5c3.6-6.5,9.9-4.6,16-2.3c-1.9,3.6-4.2,1.9-5.9,2.2c-2.3,0.4-5.6-0.8-6.3,2.5c-0.7,3.2,2.2,4.1,4.5,5.1
		c5.8,2.4,11.3,5.8,7.5,12.7C483.5,949.6,476.8,946.2,468.9,945.3z"/>
	<path class="st16" d="M629.3,920.6c-7.6,1.2-14.9,1.7-14.3,12.2c0.6,9.9,6.3,12.3,15.8,10.6c-6.8,3.8-12.9,4.9-17.5-1.3
		c-4.2-5.7-3.9-12.3-0.4-18.3C616.7,917.6,622.6,916.9,629.3,920.6z"/>
	<path class="st17" d="M723.4,920.4c-7.8,1.2-14.7,2.7-14.2,12.6c0.5,9.7,7.2,11.4,15.6,11c-6.4,3.2-12.3,4.3-16.8-1.9
		c-4.5-6.1-4.1-12.9,0.1-19C711.8,917.5,717.3,917.3,723.4,920.4z"/>
	<path class="st18" d="M585.8,947.1c-6.8-8.7,5.1-23.2-11-27.4c7.3-2,14-1.9,23.6-0.4C580.6,924.2,590.9,937.5,585.8,947.1z"/>
	<path class="st19" d="M853.2,920.3c-7.4,1.6-14.9,2.6-14.1,12.6c0.7,9.3,6.3,12.6,15.9,10.5c-6.2,4-12,4.8-16.6-0.2
		c-5.2-5.7-4.9-12.6-1.5-19C840.6,917.7,846.6,917.2,853.2,920.3z"/>
	<path class="st17" d="M1148.2,930.5c4.1-3.9,4.6-9.2,10.7-12.2c-2.5,10.5-12,17.3-10.9,28.4c-0.4-10.6-8-18.1-12.1-29
		C1143.5,921.1,1143.4,928,1148.2,930.5z"/>
	<path class="st15" d="M936.9,920.3c-8.3,1.5-16,2.7-14.5,13.9c1.2,8.9,6.8,10.5,14.7,9.9c-4.9,2.5-9.7,3.9-14.4-0.1
		c-5.9-5.1-6-11.9-3.1-18.6C923.1,917.7,929.4,917.3,936.9,920.3z"/>
	<path class="st5" d="M1065,917.9c8.2,8.3-9,27.8,16.5,25.7c-16.7,5.5-18.2,4.5-18-10.4C1063.5,928.4,1062.3,923.4,1065,917.9z"/>
	<path class="st5" d="M637.9,916.2c5.1,25.8,5.1,25.8,13.6,28.4c-14.6,4.4-16,3.5-15.9-11.4C635.6,928.4,634.5,923.4,637.9,916.2z"
		/>
	<path class="st13" d="M827.6,945.8c-3.5-8.9-2.4-18-0.1-27C829.5,927.7,830.1,936.7,827.6,945.8z"/>
	<path class="st20" d="M1024.6,945.8c-3.5-8.9-3-18-0.6-27.1C1027.3,927.6,1025.8,936.7,1024.6,945.8z"/>
	<path class="st21" d="M658.6,945.8c-2.8-8.9-2.5-17.9-0.4-27C661.5,927.5,660.6,936.7,658.6,945.8z"/>
	<path class="st20" d="M697.8,918.8c2.1,9,2.6,18.1-0.4,27.1C695.5,936.7,694.7,927.7,697.8,918.8z"/>
	<path class="st4" d="M887.4,916.5c7.9,10.5-6.2,28.4,16.1,27.9c-16.1,3.6-16.1,3.6-16.1-10.5C887.4,928.9,887.4,924,887.4,916.5z"
		/>
	<path class="st22" d="M1093.7,943.5c-5.8-0.6-8.2-5.1-8.4-10.3c-0.3-5.7,1.4-10.7,8.6-11c7.2-0.4,9.1,4.6,9.5,10.3
		C1103.7,938.7,1100.2,942.3,1093.7,943.5z"/>
	<path class="st23" d="M801.2,933.5c1.9-4.3-2.8-10.9,5.1-11.3c6.6-0.4,9.5,4.4,9.7,10.4c0.1,6-3.1,10.7-9.3,10.9
		C798.4,943.5,803.7,936.2,801.2,933.5z"/>
	<path class="st24" d="M1002.3,921.9c7.6,0.4,10.3,4.6,10.5,10.6c0.2,6.2-3.3,10.2-9.5,10.8c-5.7,0.6-5.1-4.2-4.6-7.4
		C999.4,931.2,995.2,924.5,1002.3,921.9z"/>
	<path class="st25" d="M983,931.1c-2.7-1.6-7.7,2.7-8.5-3.3c-0.3-1.9-0.9-4.5,1.8-5.5c2.4-0.9,5-0.5,7,1.2c3.2,2.7-0.7,5.1-0.4,7.7
		C982.8,931.2,983,931.1,983,931.1z"/>
	<path class="st26" d="M563.5,931c-5.1,0.1-4.5-2.7-4.5-5.1c0-3.4,2-4.1,4.9-3.6c2.6,0.4,5.2,0.9,4.7,4.3
		C568,929.8,565.2,930.5,563.5,931z"/>
	<path class="st27" d="M1054.2,932.2c-0.2,6.6-3.3,10.9-9.6,11.1c-6.9,0.2-8.8-5.6-8.8-11.2c0.1-5.2,1.9-9.9,8.6-10
		C1051.6,922,1053.4,926.7,1054.2,932.2z"/>
	<path class="st28" d="M536.9,924.9c3.8,2.9,3.5,6.6,5.2,9.7C532.4,935.3,532.4,935.3,536.9,924.9z"/>
	<path class="st29" d="M948.8,934.8c0.8-3.7,1.3-7.1,4.9-9.8c1.8,3.2,4.4,6.4,3,9.4C955.4,936.7,951.6,935.4,948.8,934.8z"/>
	<path class="st30" d="M869.4,923.4c2.9,4.3,5.8,7.8,4.2,11.3c-0.9,1.9-5.1,1.2-8.2-0.3C866.6,931.2,867.8,927.9,869.4,923.4z"/>
</g>
<g class="st1">
	<path class="st2" d="M1389.7,2642.6c3.3,310.9-251.6,576.3-575.7,576.1s-575.9-265.8-575.8-576.8c0-311.9,259.6-586,597-574.6
		C1142.4,2077.6,1392.5,2332.9,1389.7,2642.6z"/>
	<path class="st3" d="M814.3,2083.8c308.8-0.3,559.6,250.4,559.5,559c-0.1,308.9-250.2,559-559.3,559.2
		c-308.9,0.2-559.3-250-559.6-558.9C254.7,2334.4,505.1,2084,814.3,2083.8z"/>
	<path class="st2" d="M814.6,2089.7c305.1,0.3,553.2,248.4,553,553.4c-0.2,305.8-248.5,553-554.7,552.4
		c-305.5-0.6-552.5-248.7-551.9-554.1C261.6,2337.1,510.1,2089.5,814.6,2089.7z"/>
	<path class="st4" d="M899.7,2484.8c-7.2-30.6-13.9-59.3-20.6-87.9c-1.2-4.9-1.6-11-8.2-11.1c-7.5,0-7.4,6.8-8.1,12
		c-4.9,41.8-9.5,83.5-14.2,125.5c-0.8-0.2-1.9-0.2-2-0.5c-7.2-15.9-19.3-22.1-36.4-18.7c-6.1,1.2-8.9-1.7-10.9-7.3
		c-4-12-8.6-23.7-12.9-35.4c-1.4-3.9-3.2-7.4-8.1-7.4c-4.9,0-6.6,3.5-7.9,7.4c-2.1,6.5-4.5,12.8-6.7,19.3c-3.9-0.5-3.1-3.5-3.6-5.8
		c-6.4-26.1-12.8-52.3-19.1-78.5c-1.2-5-1.9-10.9-8.5-10.5c-6.7,0.4-6.7,6.4-7.3,11.4c-4.3,37.5-8.4,75-12.7,112.5
		c-0.5,4.3-1.4,8.4-2.1,12.8c-1.1-0.4-2.1-0.4-2.2-0.8c-6.6-17.8-20.8-19.8-36.7-17.6c-8.4,1.2-12.5-1.9-15.5-10.3
		c-9.5-26.8-17.9-53.9-20.5-82.4c-4.2-46.3,26.4-91.6,68.8-97.2c52.8-6.9,94.6,15.2,108.9,74.4c2.5-10.6,5.3-19.8,10.1-28.3
		c4.8-8.5,10.4-16.3,17.3-23.4c26.8-27.6,77.2-29.9,105.8-15.2c31.5,16.2,51.3,55.6,46.7,93.7c-3.2,26.1-8.3,51.7-18.3,76.4
		c-3.4,8.4-7.5,13.2-18.2,12.4c-16.9-1.2-17.1-0.3-22.9-16.5c-3.3-9.1-6.4-18.3-9.7-27.5c-1.2-3.5-3.2-6.5-7.6-6.6s-6.4,2.9-7.7,6.4
		C905.9,2467.7,903.2,2475.2,899.7,2484.8z"/>
	<path class="st4" d="M669.6,2519.7c13.9-4.5,22.2,0.6,27.9,12.1c2.7,5.4,6.6,10.3,10,15.3c2.2,3.4,4.5,6.8,9.4,5.4
		c5.1-1.5,5.8-5.9,6.2-10.3c3-26.4,6-52.9,9-79.3c1-8.5,1.9-17.1,3.2-28.3c5.8,24.3,11.1,46.2,16.3,68c0.6,2.5,1.2,4.9,1.9,7.4
		c1,3.6,2.7,6.9,7,7.1c4.8,0.3,7-3,8.3-7c3.2-9,6.3-18.1,9.7-28.3c3.5,9.7,7,18,9.7,26.5c2.3,7.3,6.6,11.7,14.1,10.1
		c19-4.1,30.4,4.7,37.7,21.1c0.2,0.4,0.4,0.6,0.6,0.9c4.3,4.4,5.4,13.9,13.4,12.1c9.3-1.9,6.8-11.6,7.5-18.3
		c3.5-29,6.4-57.9,9.5-86.9c0.3-2.4,1-4.8,3-7.3c5.3,21.7,10.5,43.3,15.9,65c1.2,4.6,1,11.1,7.5,11.7c7.1,0.6,8.2-5.8,9.9-10.8
		c2.7-7.4,5.5-14.7,8.9-24.1c3.5,9.5,6.8,16.7,8.9,24.4c2.6,9,7.5,13.3,17.2,12.2c5.2-0.6,10.6-0.1,17.3-0.1
		c-9,18.9-21.1,34.1-33.2,49c-30.9,37.7-66.7,70.5-107,98.1c-3.3,2.2-5.8,5.5-11,1.7c-54.2-39.6-102.3-85.1-136.9-143.4
		C671.1,2522.7,670.6,2521.5,669.6,2519.7z"/>
	<path class="st4" d="M945.1,2766c-27.1,21.2-41.3,48-50.6,77.3c-2.6,8.1,2.3,18.3,2.7,27.6c0.6,19.9-11.3,29.6-30.2,25.2
		c-10.7-2.5-16-8.9-15.6-20c0.2-5,0.4-10.5,2.7-14.7c6.6-12.1,3.5-23.1-1.3-34.6c-6.6-15.5-12.8-31.1-22.9-46.8
		c-6.2,26.4-14.3,50.9-15.5,76.8c-0.3,5.4-0.2,10.6,5.3,14.3c5.1,3.4,1.5,8,0,11.4c-4.5,10.7-18.8,17.8-30.6,15.7
		c-11.9-2-21.1-12.1-22.4-24.5c-1.7-15.5,2.1-30,8.1-44c9.1-21.4,19-42.6,28.1-64.1c1.9-4.4,6.8-10.7,1.1-14.4
		c-6.2-3.9-13.7-2.8-20,2.5c-2.7,2.3-3.6,6.3-7.4,7.4c-1.1-26.2,17.8-47.5,41-46c12.8,0.8,22,8.4,29.5,18
		c17.5,22.1,24.5,48.4,30,75.3c0.8,3.8,1.6,7.7,2.9,13.6c7.4-22,14.6-41.8,25.6-60c12.1-20,26.4-37.9,50-45.3
		c24-7.4,48.8,5.1,56.6,28.3c2.1,6.4,3.2,10.7-6.9,9c-26.5-4.5-26.5-4.2-31.1,22.3c-3.5,19.8-7.1,39.7-6.6,60
		c0.1,2.1-0.1,4.3,0.3,6.5c1.2,7.3,0.1,16.5,8.9,19c8.5,2.5,12-5.8,16.2-11.7c2.9,19-6.3,37.1-22.4,44.8c-19.6,9.3-39.2-1.7-44-25
		c-4.5-21.4,0.2-42.3,5.7-62.8C935.7,2794.4,940.3,2781.5,945.1,2766z"/>
	<path class="st4" d="M520.3,2899.3c-12.4,0.7-24.2-1.1-34.8-8.5c-13.8-9.7-17.9-23.5-14.6-38.9c3.1-14.4,12.8-23.7,27.6-27.2
		c6.5-1.5,9.2-0.7,8.8,6.7c-0.6,10.1,0.5,20.1,5.1,29.4c5.9,12.2,16.4,16.3,26.2,10.3c11-6.7,14.3-20.8,6.9-30.8
		c-4.5-6.1-10.9-10.5-16.9-14.9c-9.7-7.4-19.7-14.7-28.2-23.5c-16.7-17.2-18.3-41.8-3.9-61c16.7-22.3,58.3-33,83.4-21.5
		c13.4,6.1,21.7,19.3,19.8,31.5c-2,13.7-12.9,23.9-27.7,26.4c-5.6,0.9-9,0.6-7.7-6.7c0.7-4.2,0.3-8.7-0.4-12.8
		c-1.6-9.6-8.9-15.4-18.1-14.9c-8.9,0.5-15.7,7.4-16.4,17c-0.9,12.1,5.3,20.7,14.7,27.1c8,5.5,16.7,9.9,25,15
		c36.4,22.2,36.9,57.9,1.2,82C554.9,2894.4,538.7,2900.3,520.3,2899.3z"/>
	<path class="st4" d="M745.5,2829.1c2.1,6.8-1,12.7-2.7,18.4c-10.9,34.6-41.6,55.4-77.6,51.5c-20.6-2.2-33.8-15.5-41.7-33.5
		c-18.8-42.8-8.2-116.3,52.4-143.2c16.1-7.1,33.1-9.4,50.6-5c17.3,4.3,26.9,15.1,27.9,31.2c1,15.5-8.2,28.2-24.5,33.9
		c-1.7,0.6-3.4,1.2-5.1,1.7c-16.7,4.2-16.9,3.9-13.6-12.4c0.6-3.2,1.3-6.4,1.3-9.6c-0.2-12.8-9.1-19-21.2-14.3
		c-7.6,3-13,8.9-17.1,15.8c-13.9,23.5-17,48.7-10.4,74.9c6.4,25.1,25.3,32.7,48,20.5c10.4-5.7,18.3-13.8,25.9-22.5
		C739.8,2833.9,740.9,2830.1,745.5,2829.1z"/>
	<path class="st4" d="M1019.6,2823c1.8-43.9,17.6-79.7,59.3-99.9c16.6-8.1,34.4-10.2,52.5-5.8c16.7,4.2,26.3,15,27,30.5
		c0.8,16.8-7.1,28.4-23.7,34.4c-1.7,0.6-3.4,1.2-5.1,1.6c-17.2,4.5-17.6,4.1-14.1-12.7c1.9-8.6,3.8-17.9-5.8-23.1
		c-9.4-5.1-17.3-0.1-24.1,6.5c-20.8,20.1-27.6,70.6-12.8,95.2c8.9,14.8,23.2,19,38.9,11.6c13.5-6.3,23.5-16.3,32.6-27.6
		c1.4-1.8,2.3-5.4,5.5-3.7c3.1,1.6,0.6,4.4,0.3,6.7c-4.3,30.2-34,66.1-74.4,63c-22-1.7-40.8-14.9-49.2-37.5
		C1021.7,2849.5,1019.2,2836.6,1019.6,2823z"/>
	<path class="st5" d="M494.3,2972c0-8,0-15.9,0-23.8c0-1.9,0.3-3.6,2.7-3.6c1.9,0,3.2,0.9,4.1,2.7c1.8,4.1,3.8,8.2,6.5,13.7
		c2.7-5.8,4.5-9.9,6.4-14.1c0.8-1.9,2.3-2.7,4.3-2.4c2.4,0.4,2.3,2.4,2.3,4.1c0.1,7.7,0,15.4,0,25.7c-6.6-7.1-2.6-13.6-4.9-19.2
		c-4.5,2.5-3,10.7-8.2,10.6c-5.4,0-4.1-7.5-8.5-11.3c-0.4,6.3-0.8,12-1.2,17.5C496.7,2972.1,495.6,2972,494.3,2972z"/>
	<path class="st6" d="M685.4,2963.5c0-6.2,0-12.4,0-18.6c5.1,8,2.8,16.4,3.4,24.5c0.1,1.6-0.7,2.7-2.4,2.9c-1.9,0.3-3.3-0.6-4.3-2.4
		c-2.9-5.2-5.8-10.4-9.3-16.3c-2.7,6.7,0.4,13-3.6,20.6c-3-10.3-1.2-18.7-1.7-26.8c-0.1-1.6,0.6-2.8,2.3-3c1.9-0.2,3.4,0.7,4.3,2.6
		c2.9,5.7,5.9,11.3,8.9,16.9C683.7,2963.9,684.6,2963.7,685.4,2963.5z"/>
	<path class="st7" d="M765.8,2972.1c-2.5-5.4-0.2-11.3-1.6-17.3c-4.7,2.5-3.2,10.7-8.2,11c-6.1,0.4-4.1-8.3-9-10.9
		c-2.6,5.5,1.2,12-3.1,18c-2.5-8.6-0.8-16.5-1.2-24.2c-0.1-1.8,0-3.7,2.3-4.1c2-0.4,3.4,0.9,4.3,2.6c1.9,4.1,3.8,8.2,5.8,12.6
		c4.2-3.5,4.5-8.1,6.6-11.8c1.1-1.9,1.9-3.8,4.6-3.5c3.2,0.4,2.7,2.8,2.7,4.8c0.1,7.6,0,15.2,0,22.8
		C767.9,2972.2,766.9,2972.1,765.8,2972.1z"/>
	<path class="st8" d="M1093.5,2944.3c8.9,0.1,14.9,6.3,14.2,14.9c-0.6,8-4.3,13.7-13.5,13.6c-8.3-0.1-14.1-6-13.5-14.7
		C1081.5,2950.2,1085.3,2944.6,1093.5,2944.3z"/>
	<path class="st9" d="M804.9,2944.4c9.7,0.2,15.6,5.9,15.1,14.8c-0.5,8.7-4.8,13.6-14.2,13.7c-5.8,0.1-8.7-1.3-8.1-7.7
		c0.4-4.6,0.3-9.3,0.1-13.9C797.4,2945.6,800.2,2943.6,804.9,2944.4z"/>
	<path class="st10" d="M994.6,2957.5c2.2-3.9-4.9-13.3,7.1-13.2c9.2,0,15.1,5.4,15.2,14.2c0.1,9-5.4,14.4-14.8,14.3
		C994.6,2972.7,994.6,2972.7,994.6,2957.5z"/>
	<path class="st11" d="M983,2957.3c2.2,4.6,5.9,8.7,6.5,15.3c-7-2.2-6-12.8-14.3-11.3c-2.2,3.3,1,7.9-5,13c0-10.4-0.7-19,0.3-27.3
		c0.6-4.6,5.9-2.5,9.2-2.6c4.3-0.1,8,1.9,8.8,6.3c0.7,3.9-0.7,7.1-5.7,6.7c-0.9-1.4-1.2-3.2-2.9-4.3
		C979.6,2955.8,982.3,2955.8,983,2957.3z"/>
	<path class="st9" d="M574,2973.9c-6.6-4.3-6.2-12.8-12.5-12.3c-5.8,0.4-0.2,7.9-6.6,12c0-9.7-0.9-18.2,0.4-26.3
		c0.8-5.1,6.6-2.7,10.1-2.4c4.2,0.3,9.5,4,7,7.2C566.5,2959.5,573.4,2965.4,574,2973.9z"/>
	<path class="st12" d="M1045.2,2972.9c-8.8-0.3-13.1-4.9-13.4-13.5c-0.4-9.2,4.7-15.1,12.8-15.1c8.2,0,14.1,6.1,13.6,14.6
		C1057.8,2967.1,1054,2972.6,1045.2,2972.9z"/>
	<path class="st13" d="M793.1,2945.4c-3.7,6.4-12.2-0.7-12.9,6.7c-0.6,7,7.4,1.7,10.1,6.1c-1.9,4.1-12.1-1.9-10.4,7.1
		c1.4,7.5,9.3,0.7,12.8,6.8c-5.8,0.7-11.1,1.6-16.1-0.7c-1.4-0.6-1.7-24.5-0.3-25.3C781.5,2943.1,786.9,2944.1,793.1,2945.4z"/>
	<path class="st14" d="M1125.6,2958.5c8-2.6,8.2,1.4,8.9,6.8c0.9,7.4-3.8,6.3-8,7.1c-5.8,1-11,0.3-13.5-5.8
		c-2.7-6.7-2.6-13.7,2.7-19c4.7-4.6,10.5-4.4,18.9,0.4c-9.7,0.8-18.7-1.1-19,9.8c-0.2,4.4,0.6,8.6,5,11.1c3,1.7,6.3,0.4,8-1.2
		C1132.2,2964.3,1128.4,2961.7,1125.6,2958.5z"/>
	<path class="st10" d="M550.4,2971.4c-9.3-8-14.3-9.7-26.6,2.9c4.3-11,7.3-19.1,10.8-27.1c2.2-4.9,5.1-3.1,6.7,0.6
		C544.6,2955.6,547.4,2963.5,550.4,2971.4z"/>
	<path class="st13" d="M965.5,2974c-9.3-11.3-15.2-11.6-25.3-2.5c3.2-8.1,6.5-16.1,9.7-24.1c1.6-3.9,4.8-4,6.1-0.6
		C959.5,2955,964.1,2963,965.5,2974z"/>
	<path class="st15" d="M857.4,2971.3c3-7.8,5.8-15.7,9.2-23.3c2-4.7,5.1-5.1,7.1,0.1c3.2,7.7,6,15.6,9.9,25.7
		c-6.4-3.3-7.4-9.3-13.6-8.6c-5.4,0.5-8.3,2.7-9.7,8.3C859.4,2972.7,858.4,2972,857.4,2971.3z"/>
	<path class="st9" d="M468.9,2971.6c3.8-4.3,5.3-2.4,6.8-2.1c3.4,0.6,6.8,0.7,8.1-3.2c1.1-3.6-2.1-5-4.7-6.2
		c-5-2.4-11.3-4.8-7.4-11.5c3.6-6.5,9.9-4.6,16-2.3c-1.9,3.6-4.2,1.9-5.9,2.2c-2.3,0.4-5.6-0.8-6.3,2.5c-0.7,3.2,2.2,4.1,4.5,5.1
		c5.8,2.4,11.3,5.8,7.5,12.7C483.5,2975.8,476.8,2972.5,468.9,2971.6z"/>
	<path class="st16" d="M629.3,2946.9c-7.6,1.2-14.9,1.7-14.3,12.2c0.6,9.9,6.3,12.3,15.8,10.6c-6.8,3.8-12.9,4.9-17.5-1.3
		c-4.2-5.7-3.9-12.3-0.4-18.3C616.7,2943.9,622.6,2943.2,629.3,2946.9z"/>
	<path class="st17" d="M723.4,2946.7c-7.8,1.2-14.7,2.7-14.2,12.6c0.5,9.7,7.2,11.4,15.6,11c-6.4,3.2-12.3,4.3-16.8-1.9
		c-4.5-6.1-4.1-12.9,0.1-19C711.8,2943.8,717.3,2943.5,723.4,2946.7z"/>
	<path class="st18" d="M585.8,2973.4c-6.8-8.7,5.1-23.2-11-27.4c7.3-2,14-1.9,23.6-0.4C580.6,2950.5,590.9,2963.8,585.8,2973.4z"/>
	<path class="st19" d="M853.2,2946.5c-7.4,1.6-14.9,2.6-14.1,12.6c0.7,9.3,6.3,12.6,15.9,10.5c-6.2,4-12,4.8-16.6-0.2
		c-5.2-5.7-4.9-12.6-1.5-19C840.6,2943.9,846.6,2943.4,853.2,2946.5z"/>
	<path class="st17" d="M1148.2,2956.7c4.1-3.9,4.6-9.2,10.7-12.2c-2.5,10.5-12,17.3-10.9,28.4c-0.4-10.6-8-18.1-12.1-29
		C1143.5,2947.3,1143.4,2954.2,1148.2,2956.7z"/>
	<path class="st15" d="M936.9,2946.5c-8.3,1.5-16,2.7-14.5,13.9c1.2,8.9,6.8,10.5,14.7,9.9c-4.9,2.5-9.7,3.9-14.4-0.1
		c-5.9-5.1-6-11.9-3.1-18.6C923.1,2943.9,929.4,2943.5,936.9,2946.5z"/>
	<path class="st5" d="M1065,2944.1c8.2,8.3-9,27.8,16.5,25.7c-16.7,5.5-18.2,4.5-18-10.4C1063.5,2954.7,1062.3,2949.6,1065,2944.1z"
		/>
	<path class="st5" d="M637.9,2942.4c5.1,25.8,5.1,25.8,13.6,28.4c-14.6,4.4-16,3.5-15.9-11.4
		C635.6,2954.7,634.5,2949.6,637.9,2942.4z"/>
	<path class="st13" d="M827.6,2972c-3.5-8.9-2.4-18-0.1-27C829.5,2954,830.1,2963,827.6,2972z"/>
	<path class="st20" d="M1024.6,2972c-3.5-8.9-3-18-0.6-27.1C1027.3,2953.9,1025.8,2963,1024.6,2972z"/>
	<path class="st21" d="M658.6,2972c-2.8-8.9-2.5-17.9-0.4-27C661.5,2953.8,660.6,2962.9,658.6,2972z"/>
	<path class="st20" d="M697.8,2945c2.1,9,2.6,18.1-0.4,27.1C695.5,2963,694.7,2954,697.8,2945z"/>
	<path class="st4" d="M887.4,2942.7c7.9,10.5-6.2,28.4,16.1,27.9c-16.1,3.6-16.1,3.6-16.1-10.5
		C887.4,2955.2,887.4,2950.2,887.4,2942.7z"/>
	<path class="st22" d="M1093.7,2969.7c-5.8-0.6-8.2-5.1-8.4-10.3c-0.3-5.7,1.4-10.7,8.6-11c7.2-0.4,9.1,4.6,9.5,10.3
		C1103.7,2964.9,1100.2,2968.6,1093.7,2969.7z"/>
	<path class="st23" d="M801.2,2959.7c1.9-4.3-2.8-10.9,5.1-11.3c6.6-0.4,9.5,4.4,9.7,10.4c0.1,6-3.1,10.7-9.3,10.9
		C798.4,2969.7,803.7,2962.5,801.2,2959.7z"/>
	<path class="st24" d="M1002.3,2948.2c7.6,0.4,10.3,4.6,10.5,10.6c0.2,6.2-3.3,10.2-9.5,10.8c-5.7,0.6-5.1-4.2-4.6-7.4
		C999.4,2957.4,995.2,2950.8,1002.3,2948.2z"/>
	<path class="st25" d="M983,2957.3c-2.7-1.6-7.7,2.7-8.5-3.3c-0.3-1.9-0.9-4.5,1.8-5.5c2.4-0.9,5-0.5,7,1.2c3.2,2.7-0.7,5.1-0.4,7.7
		C982.8,2957.5,983,2957.3,983,2957.3z"/>
	<path class="st26" d="M563.5,2957.2c-5.1,0.1-4.5-2.7-4.5-5.1c0-3.4,2-4.1,4.9-3.6c2.6,0.4,5.2,0.9,4.7,4.3
		C568,2956.1,565.2,2956.8,563.5,2957.2z"/>
	<path class="st27" d="M1054.2,2958.5c-0.2,6.6-3.3,10.9-9.6,11.1c-6.9,0.2-8.8-5.6-8.8-11.2c0.1-5.2,1.9-9.9,8.6-10
		C1051.6,2948.3,1053.4,2953,1054.2,2958.5z"/>
	<path class="st28" d="M536.9,2951.1c3.8,2.9,3.5,6.6,5.2,9.7C532.4,2961.6,532.4,2961.6,536.9,2951.1z"/>
	<path class="st29" d="M948.8,2961c0.8-3.7,1.3-7.1,4.9-9.8c1.8,3.2,4.4,6.4,3,9.4C955.4,2962.9,951.6,2961.7,948.8,2961z"/>
	<path class="st30" d="M869.4,2949.6c2.9,4.3,5.8,7.8,4.2,11.3c-0.9,1.9-5.1,1.2-8.2-0.3C866.6,2957.4,867.8,2954.1,869.4,2949.6z"
		/>
</g>
</svg>
