<svg id="icon-0" xmlns="http://www.w3.org/2000/svg" xmlns:xlink="http://www.w3.org/1999/xlink" viewBox="0 0 1919.45 1919.45"><defs><style>.cls-1{fill:url(#radial-gradient);}.cls-2,.cls-3{fill:#fff;stroke:#000;}.cls-2,.cls-3,.cls-4{stroke-miterlimit:10;}.cls-3{stroke-width:2px;}.cls-4{fill:none;stroke:#fff;stroke-width:31px;}</style><radialGradient id="radial-gradient" cx="959.73" cy="959.73" fx="972.1342254804723" fy="21.616665820794537" r="978.48" gradientUnits="userSpaceOnUse"><stop offset="0.03" stop-color="#1e55b3"/><stop offset="0.86" stop-color="#1e55b3"/><stop offset="1" stop-color="#242e90"/></radialGradient></defs><g id="tight-bounds"><circle class="cls-1" cx="959.73" cy="959.73" r="959.73"/><g id="textblocktransform"><path id="text-0" class="cls-2" d="M534.07,1432h0q-26.81,0-44.15-9.2t-25.84-23.59a58,58,0,0,1-8.39-29.6h0a59,59,0,0,1,7.19-28.23,60.67,60.67,0,0,1,20.64-22.15q13.35-8.81,31.75-8.8h0a58.92,58.92,0,0,0-.4,6.56v3h0q0,26.79,5.2,42.15t13.2,22q8,6.64,16.39,6.64h0q12.8,0,22.8-10.24t10-23.75h0q0-15.19-13-26.8a366.76,366.76,0,0,0-33-25.59h0q-11.21-8.4-23.76-19a98.73,98.73,0,0,1-21.43-25.19q-8.8-14.55-8.8-34.55h0q0-20.79,9.84-36.79a87.7,87.7,0,0,1,26-27A129.19,129.19,0,0,1,553.9,1145a134.66,134.66,0,0,1,38.55-5.76h0q23.59,0,38.79,7.6t22.8,19.59a45.82,45.82,0,0,1,7.6,24.8h0a44,44,0,0,1-6.56,23q-6.65,11-19.44,17.84t-31.59,6.8h0a84.43,84.43,0,0,0,1.6-10.24q.4-4.56.4-8.16h0q0-20-8.64-28.63t-18.95-8.56h0q-10,0-19.2,7.36t-9.2,23.83h0q0,14,7.44,24A71.17,71.17,0,0,0,576.7,1256q11.74,7.6,24.95,14.8h0a283.59,283.59,0,0,1,26.23,15.75,85.13,85.13,0,0,1,21,20.24q8.4,11.6,8.4,29.19h0q0,18.4-10,35.75a105.33,105.33,0,0,1-27.19,30.8A141.51,141.51,0,0,1,580.7,1424,136.8,136.8,0,0,1,534.07,1432Zm246.74,0h0q-25.2,0-43.43-10.24a86.06,86.06,0,0,1-30-28,125.7,125.7,0,0,1-17.19-40.39,177.41,177.41,0,0,1-4.56-46.95h0q1.61-43.59,16-75.18t36.39-52q22-20.4,47.35-30.23t49-9.76h0q20,0,36.16,6.56T896.38,1165q9.6,12.65,9.6,30.64h0a49.55,49.55,0,0,1-8.24,26.95q-8.16,13-24.8,21.19T830.4,1252h0a188.39,188.39,0,0,0,6.39-22.39,82,82,0,0,0,2-16.4h0q0-14-6.4-19t-16-5h0q-11.6,0-22,8.4t-18.63,22.55a137,137,0,0,0-13,31.43,155.66,155.66,0,0,0-5.6,34.79h0q-1.59,44.4,12.8,67.19t37.19,22.79h0q17.59,0,38.95-14.39t42.23-43.59h0l5.2,2.4q-5.21,36-22.79,60.78t-41.43,37.59Q805.6,1432,780.81,1432Zm443.89-2.4h0a46.73,46.73,0,0,1-24.63-7.2q-11.76-7.2-19-22.79t-7.2-40h0q0-20,4.8-45a450.56,450.56,0,0,1,12.56-50.15,400,400,0,0,1,17-45.59h0q-27.58,18.39-48.38,50.79t-36,75.18h0q3.21,12.8,5.2,24a116.33,116.33,0,0,1,2,20.4h0q0,17.6-8.4,27.59t-29.27,10h0q-18.32,0-27-8.24t-8.56-23h0a85.36,85.36,0,0,1,3.36-22,194.17,194.17,0,0,1,9.84-26.79h0q-7.2-21.19-17.68-47.75-10.32-26.62-29.11-58.22h0q-5.59,23.6-11.44,46.94t-9.6,43.19q-3.84,19.85-3.84,33.44h0q0,22,12,22h0l.88.8q0,13.2-6.64,22.55a42.84,42.84,0,0,1-16.79,14.4,47.62,47.62,0,0,1-21.44,5h0a45.72,45.72,0,0,1-21-5.2A40.39,40.39,0,0,1,930,1407.74q-6.39-11-6.4-28.16h0q0-16.39,5.76-35.83A359.54,359.54,0,0,1,944,1304.16q8.79-20.16,18-39.59t16.56-36.39q7.44-17,9.84-29.75h0a29.4,29.4,0,0,0-17.2-5.6h0q-7.59,0-15.44,5t-14.55,16.63h0l-2.8-1.2a87.51,87.51,0,0,1,8.8-37.43,74.25,74.25,0,0,1,22.15-27.19,49.92,49.92,0,0,1,30.15-10.16h0q18.88,0,38.87,16.4t37,54q17,37.59,27.43,101.58h0q15.19-49.19,32.71-82.38,17.68-33.19,36.23-52.79t36.79-28.23q18.24-8.57,34.64-8.56h0a68.28,68.28,0,0,1,36.55,10,76.63,76.63,0,0,1,25.59,25.19q9.43,15.19,9.44,30.39h0a134.34,134.34,0,0,0-19.84-4,155.17,155.17,0,0,0-18.95-1.2h0a124.46,124.46,0,0,0-17.6,1.2h0q-3.6,18.39-7.6,41t-7,45.42a326.78,326.78,0,0,0-3,42h0q0,19.6,4,32t14,12.39h0q6.4,0,13-5.59t9.76-17.2h0l2.88,1.2q0,26.38-8.88,43.75-8.72,17.43-22.56,26.07T1224.7,1429.57Zm193.87,2.4h0q-25.18,0-43.35-10.24a85.18,85.18,0,0,1-30-28,123.32,123.32,0,0,1-17.19-40.39,174.54,174.54,0,0,1-4.64-46.95h0q1.59-43.59,16-75.18t36.39-52q22-20.4,47.43-30.23t49-9.76h0q20,0,36.23,6.56t25.76,19.19q9.58,12.65,9.59,30.64h0a49.87,49.87,0,0,1-8.16,26.95q-8.24,13-24.79,21.19t-42.63,8.24h0a188.64,188.64,0,0,0,6.4-22.39,82.69,82.69,0,0,0,2-16.4h0q0-14-6.4-19t-16-5h0q-11.6,0-22,8.4t-18.56,22.55a134.94,134.94,0,0,0-13,31.43,155.09,155.09,0,0,0-5.6,34.79h0q-1.61,44.4,12.8,67.19t37.19,22.79h0q17.6,0,39-14.39t42.15-43.59h0l5.2,2.4q-5.2,36-22.8,60.78t-41.35,37.59Q1443.36,1432,1418.57,1432Z" transform="translate(-39.99 -39.99)"/><path id="text-1" class="cls-3" d="M473.89,1573.24q-9.63,0-13.9-4.77t-4.28-15.38h0v-6.91h13.9v8.8q0,5.26,3.38,5.27h0a2.94,2.94,0,0,0,2.63-1.12,7,7,0,0,0,.74-3.74h0a17.19,17.19,0,0,0-.82-5.72,12.79,12.79,0,0,0-2.09-3.79c-.86-1-2.38-2.58-4.58-4.72h0l-6.08-6.09q-7.08-6.9-7.08-15.3h0q0-9,4.16-13.78t12.13-4.73h0q9.54,0,13.74,5.06t4.19,15.84H475.54l-.09-4.85a3.1,3.1,0,0,0-.77-2.23,2.93,2.93,0,0,0-2.19-.82h0a3.17,3.17,0,0,0-2.47.91,3.55,3.55,0,0,0-.82,2.46h0c0,2.31,1.32,4.69,3.95,7.16h0l8.23,7.9a46.52,46.52,0,0,1,4.77,5.3,20.9,20.9,0,0,1,3,5.92,25.42,25.42,0,0,1,1.15,8.11h0q0,10.44-3.81,15.83t-12.64,5.39Zm33.89-.66H495v-70.66h21.55l5.93,43.11,5.92-43.11h21.72v70.66H537.23v-50.91l-8.14,50.91H516.42l-8.64-50.91Zm60.46,0H554.51l6.82-70.66h23.94l6.75,70.66H578.61l-1-11.43h-8.55Zm4.53-58.65-2.65,36h6.43l-3.14-36Zm23.51,58.65v-70.66H618q5.19,0,8,2.34a11.73,11.73,0,0,1,3.82,6.6,48.7,48.7,0,0,1,1,10.81h0q0,6-1.57,9.37a8.77,8.77,0,0,1-5.43,4.69h0a6.57,6.57,0,0,1,4.66,3.21,14.19,14.19,0,0,1,1.43,6.91h0l-.16,26.73H615.94v-27.64c0-2-.39-3.23-1.15-3.78s-2.17-.82-4.2-.82h0v32.24Zm14.39-44.5h3.38q3,0,3-6.41h0a26.67,26.67,0,0,0-.25-4.2,3.18,3.18,0,0,0-.9-1.94,3,3,0,0,0-1.9-.53h-3.29Zm45.08,44.5H641.6V1515.5h-8.39v-13.58h30.93v13.58h-8.39Zm48,.66q-7.74,0-12.39-4.85t-4.64-13.33h0v-32.57q0-10.53,4.18-15.88t13.16-5.35h0q7.81,0,12.61,4.28t4.77,12.34h0v12.18H707.39v-10.45a8.59,8.59,0,0,0-.72-4.2,2.85,2.85,0,0,0-2.57-1.15h0a2.64,2.64,0,0,0-2.58,1.32,8.37,8.37,0,0,0-.71,3.86h0v35.46a7.65,7.65,0,0,0,.83,4.06,2.72,2.72,0,0,0,2.46,1.29h0c2.2,0,3.29-1.79,3.29-5.35h0v-12.75h14.25v13.32q0,17.77-17.85,17.77Zm51.23-.66H726.31v-70.66h14.15v58.65H755Zm17,0H758.31v-70.66H772Zm19.49,0H777.64v-70.66H792.2l6.5,33.81v-33.81h13.66v70.66H798.54l-7.08-35.37Zm40.15,0H817.94v-70.66h13.67Zm22.11.66q-7.74,0-12.37-4.85t-4.66-13.33h0v-32.57q0-10.53,4.2-15.88t13.16-5.35h0q7.82,0,12.58,4.28t4.77,12.34h0v12.18H857.34v-10.45a8.43,8.43,0,0,0-.74-4.2,2.83,2.83,0,0,0-2.55-1.15h0a2.67,2.67,0,0,0-2.59,1.32,8.38,8.38,0,0,0-.7,3.86h0v35.46a7.66,7.66,0,0,0,.82,4.06,2.73,2.73,0,0,0,2.47,1.29h0c2.19,0,3.29-1.79,3.29-5.35h0v-12.75h14.23v13.32q0,17.77-17.85,17.77Zm54.54-.66H895.51v-70.66h21.55L923,1545l5.92-43.11h21.72v70.66H937.71v-50.91l-8.15,50.91H916.89l-8.63-50.91Zm77.8,0h-29.2v-70.66h28.31v13.66H971.25v13.74h13.33v13.32H971.25v16.21h14.81Zm4.69,0v-70.66h19.49q7.57,0,11.36,4.2c2.52,2.79,3.81,6.94,3.86,12.42h0l.17,33.07q.07,10.44-3.62,15.71t-12.26,5.26h-19Zm14.23-12.5h2.47q3.85,0,3.86-3.78h0v-36.44a13.38,13.38,0,0,0-.36-3.59,2.43,2.43,0,0,0-1.36-1.6,8.56,8.56,0,0,0-3.05-.41H1005Zm39.32,12.5h-13.66v-70.66h13.66Zm22.13.66q-7.74,0-12.39-4.85t-4.64-13.33h0v-32.57q0-10.53,4.19-15.88t13.17-5.35h0q7.82,0,12.58,4.28t4.77,12.34h0v12.18h-14.06v-10.45a8.43,8.43,0,0,0-.74-4.2,2.83,2.83,0,0,0-2.55-1.15h0a2.67,2.67,0,0,0-2.6,1.32,8.53,8.53,0,0,0-.69,3.86h0v35.46a7.66,7.66,0,0,0,.82,4.06,2.73,2.73,0,0,0,2.47,1.29h0c2.19,0,3.29-1.79,3.29-5.35h0v-12.75h14.23v13.32q0,17.77-17.85,17.77Zm34.38-.66h-13.74l6.82-70.66h23.93l6.77,70.66h-13.43l-1-11.43h-8.56Zm4.53-58.65-2.64,36h6.4l-3.11-36Zm52.22,58.65h-28.71v-70.66H1143v58.65h14.57Zm39.64.66q-7.73,0-12.38-4.85t-4.64-13.33h0v-32.57q0-10.53,4.19-15.88t13.16-5.35h0q7.82,0,12.59,4.28t4.77,12.34h0v12.18h-14.07v-10.45a8.32,8.32,0,0,0-.74-4.2,2.8,2.8,0,0,0-2.55-1.15h0a2.69,2.69,0,0,0-2.6,1.32,8.53,8.53,0,0,0-.69,3.86h0v35.46a7.65,7.65,0,0,0,.83,4.06,2.72,2.72,0,0,0,2.46,1.29h0c2.2,0,3.29-1.79,3.29-5.35h0v-12.75h14.23v13.32q0,17.77-17.85,17.77Zm34.39-.66h-13.74l6.81-70.66h24l6.74,70.66h-13.42l-1-11.43h-8.56Zm4.52-58.65-2.63,36h6.4l-3.11-36Zm23.51,58.65v-70.66h21.72c3.46,0,6.13.78,8,2.34a11.73,11.73,0,0,1,3.82,6.6,49.38,49.38,0,0,1,1,10.81h0a22.81,22.81,0,0,1-1.56,9.37,8.77,8.77,0,0,1-5.43,4.69h0a6.59,6.59,0,0,1,4.66,3.21,14.19,14.19,0,0,1,1.43,6.91h0l-.17,26.73h-13.82v-27.64c0-2-.38-3.23-1.15-3.78s-2.16-.82-4.19-.82h0v32.24Zm14.4-44.5h3.37c2,0,3-2.14,3-6.41h0a26.93,26.93,0,0,0-.24-4.2,3.18,3.18,0,0,0-.91-1.94,3,3,0,0,0-1.89-.53H1274Zm24.84,44.5v-70.66h19.5q7.56,0,11.35,4.2c2.52,2.79,3.81,6.94,3.87,12.42h0l.16,33.07q.08,10.44-3.62,15.71t-12.26,5.26h-19Zm14.23-12.5h2.47q3.87,0,3.87-3.78h0v-36.44a12.91,12.91,0,0,0-.37-3.59,2.4,2.4,0,0,0-1.36-1.6,8.49,8.49,0,0,0-3-.41h-1.57Zm39.32,12.5h-13.65v-70.66h13.65Zm22.53.66q-8.55,0-13-5.23t-4.44-14.67h0v-33.65q0-9.14,4.44-13.79t13-4.64h0q8.57,0,13,4.64t4.44,13.79h0v33.65q0,9.54-4.44,14.72t-13,5.18Zm0-13a2.52,2.52,0,0,0,2.56-1.65,12.79,12.79,0,0,0,.66-4.61h0v-34.55a9.72,9.72,0,0,0-.62-3.75,2.45,2.45,0,0,0-2.51-1.43h0c-2.36,0-3.55,1.78-3.55,5.35h0v34.47a11.21,11.21,0,0,0,.74,4.6,2.77,2.77,0,0,0,2.72,1.57Zm51.82,12.33h-28.71v-70.66h14.15v58.65h14.56Zm20.81.66q-8.55,0-13-5.23t-4.44-14.67h0v-33.65q0-9.14,4.44-13.79t13-4.64h0q8.55,0,13,4.64t4.44,13.79h0v33.65q0,9.54-4.44,14.72t-13,5.18Zm0-13a2.5,2.5,0,0,0,2.55-1.65,12.79,12.79,0,0,0,.66-4.61h0v-34.55a9.52,9.52,0,0,0-.63-3.75,2.43,2.43,0,0,0-2.5-1.43h0q-3.53,0-3.53,5.35h0v34.47a11,11,0,0,0,.74,4.6,2.74,2.74,0,0,0,2.71,1.57Zm37.68,13q-7.65,0-11.4-5.39t-3.74-16.32h0v-30.44q0-9.79,4.36-14.81t13-5h0q7,0,10.86,2.8a14.39,14.39,0,0,1,5.34,8.15,52.55,52.55,0,0,1,1.48,13.73h-13.82v-6.33a9,9,0,0,0-.7-3.95,2.55,2.55,0,0,0-2.5-1.4h0q-4,0-4,5.27h0v34.22a11.16,11.16,0,0,0,.83,4.85,3,3,0,0,0,2.88,1.65h0a3,3,0,0,0,2.88-1.65,11.33,11.33,0,0,0,.82-4.85h0v-10.12h-3.79v-12.18H1505v41.13h-5.68l-2.38-5.92q-3.79,6.58-11.68,6.58Zm47.2-.66h-13.33V1549.3l-11.27-47.38h14l3.94,23.94,4-23.94h14l-11.27,47.38Z" transform="translate(-39.99 -39.99)"/></g><path class="cls-2" d="M723.69,770.75h57.23a12.93,12.93,0,0,1,10.75,5.74s10.91,16.47,21.8,32.81c6-53.52,27.06-240.58,27.06-240.58a12.9,12.9,0,0,1,25.36-1.54S893.3,682.1,906.27,736.39c8.54-24.13,17.16-48.57,17.16-48.57a12.89,12.89,0,0,1,24.26-.15s25.45,69.14,30.56,83.08h49.67a13,13,0,0,1,10.76,5.74s10.91,16.47,21.79,32.81c6-53.52,27.07-240.58,27.07-240.58a12.9,12.9,0,0,1,25.36-1.54s27.39,114.87,40.36,169.21c8.53-24.13,17.19-48.57,17.19-48.57a12.88,12.88,0,0,1,24.23-.15s25.48,69.14,30.57,83.08H1276l2.7-5.16c24.65-42.43,42.66-121,42.66-178.21,0-73-53.13-161.19-156.67-161.19-148,0-167,138.6-167,138.6S979.39,426.86,831.53,426.86c-99.89,0-153.48,85-153.48,160.52,0,65.24,28.56,145.76,43.2,178.84Z" transform="translate(-39.99 -39.99)"/><path class="cls-2" d="M1216.25,796.55a12.9,12.9,0,0,1-12.1-8.44l-21.34-58c-14.79,34.84-15.45,65.19-32.59,64.61a12.8,12.8,0,0,1-11.86-9.88l-33.41-140-22.78,202.49a12.93,12.93,0,0,1-23.58,5.7S1027.33,806,1021,796.55c-82.94.24-53.5,7.94-85.16-66.4C921,765,920.34,795.33,903.2,794.76a12.87,12.87,0,0,1-11.9-9.88L857.94,645c-8.89,79-22.76,202.39-22.76,202.39a12.93,12.93,0,0,1-14.32,11.36C809.06,858,787,812.51,774,796.55H737.7c92.5,164.35,260,272.6,260,272.6s170.58-108.28,264.55-272.6Z" transform="translate(-39.99 -39.99)"/></g><path class="cls-4" d="M999.71,1881.29c486.89,0,881.58-394.69,881.58-881.58S1486.6,118.13,999.71,118.14,118.13,512.84,118.14,999.71s394.7,881.58,881.57,881.58Z" transform="translate(-39.99 -39.99)"/></svg>